<?xml version="1.0" encoding="utf-8"?>
<!-- Generator: Adobe Illustrator 19.0.0, SVG Export Plug-In . SVG Version: 6.00 Build 0)  -->
<svg version="1.1" id="Layer_1" xmlns="http://www.w3.org/2000/svg" xmlns:xlink="http://www.w3.org/1999/xlink" x="0px" y="0px"
	 viewBox="-15 194 769 213" style="enable-background:new -15 194 769 213;" xml:space="preserve">
<style type="text/css">
	.st0{fill:#1E4C66;}
	.st1{fill:#3DB1E4;}
	.st2{fill:#2A7FA6;}
	.st3{enable-background:new    ;}
	.st4{fill:#FFFFFF;}
</style>
<g>
	<g id="XMLID_9_">
		<g id="XMLID_11_">
			<path id="XMLID_14_" class="st0" d="M51.2,319.4L71.4,381c1.4,4.3,6.8,5.9,10.3,3l60.1-49.7c0,0-63.9-24.9-63.9-23.6
				C78,312.1,51.2,319.4,51.2,319.4z"/>
			<path id="XMLID_13_" class="st1" d="M209.9,201c-39.3,15.5-166,67.5-213.9,87.1c-6.3,2.6-6,11.7,0.5,13.8l54.7,17.5l20.1,61.3
				c0.8,2.5,2.9,4,5.1,4.4c1.9,0.3,4.6-49.8,4.6-49.8s57.6,42.7,84.9,62.9c6.7,5,16.3,1.2,17.9-6.9c8.2-41.9,28.4-146.8,35.5-182.6
				C220.2,203.5,215,199,209.9,201z"/>
			<path id="XMLID_12_" class="st2" d="M76.4,385.2c1.9,0.3,4.6-49.8,4.6-49.8l94.6-88.9c0.6-0.6-0.1-1.7-0.8-1.1l-123.5,74
				l20.1,61.3C72.1,383.3,74.2,384.8,76.4,385.2z"/>
		</g>
	</g>
	<g class="st3">
		<path class="st4" d="M259.9,365.7l2.4-10.7c2.5,0.7,4.5,1,5.9,1c2.6,0,4.5-0.9,5.7-2.6s1.9-5.9,1.9-12.8v-78.2h12.6v78.5
			c0,9.2-1.1,15.5-3.5,19.1c-3.1,4.7-8,7-15.1,7C266.4,367.1,263,366.6,259.9,365.7z M275.9,248.7v-14.6h12.6v14.6H275.9z"/>
		<path class="st4" d="M358.9,312.9l13,1.6c-2,7.7-5.8,13.5-11.4,17.7s-12.6,6.3-21.4,6.3c-10.9,0-19.5-3.4-25.9-10.1
			s-9.6-16.1-9.6-28.2c0-12.5,3.3-22.2,9.7-29.2c6.4-6.9,14.8-10.3,25.1-10.3c10,0,18.1,3.4,24.4,10.1c6.3,6.8,9.5,16.3,9.5,28.6
			c0,0.8,0,1.9-0.1,3.4h-55.5c0.5,8.1,2.8,14.5,7,18.8c4.1,4.3,9.4,6.5,15.6,6.5c4.6,0,8.6-1.2,11.9-3.6
			C354.3,322.1,356.9,318.2,358.9,312.9z M317.4,292.5H359c-0.6-6.2-2.1-11-4.8-14.1c-4-4.9-9.2-7.3-15.6-7.3
			c-5.8,0-10.6,1.9-14.6,5.8S317.8,286,317.4,292.5z"/>
		<path class="st4" d="M415.3,325.5l1.8,11.1c-3.5,0.8-6.7,1.1-9.6,1.1c-4.6,0-8.1-0.8-10.6-2.2c-2.5-1.4-4.3-3.4-5.4-5.7
			c-1.1-2.4-1.5-7.4-1.5-14.9v-42.7h-9.3v-9.9h9.3v-18.5l12.5-7.6v26h12.7v9.9h-12.7v43.6c0,3.6,0.2,5.9,0.7,7s1.1,1.8,2.2,2.5
			c1,0.6,2.5,1,4.3,1C411.2,326,413,325.9,415.3,325.5z"/>
		<path class="st4" d="M427.6,336.8v-74.5h11.3v10.4c2.3-3.6,5.5-6.6,9.3-8.8c3.9-2.2,8.3-3.4,13.2-3.4c5.6,0,10.1,1.1,13.6,3.4
			s6,5.5,7.5,9.6c5.9-8.7,13.6-13,23-13c7.4,0,13,2,17,6.1c3.9,4.1,5.9,10.4,5.9,18.9v51.1h-12.5v-46.9c0-5.1-0.4-8.7-1.2-10.9
			s-2.3-4-4.5-5.4c-2.1-1.3-4.7-2-7.6-2c-5.3,0-9.6,1.7-13,5.3c-3.4,3.4-5.2,9.1-5.2,16.8v43.3h-12.6v-48.4c0-5.6-1.1-9.9-3.1-12.6
			c-2-2.8-5.5-4.2-10.1-4.2c-3.5,0-6.8,1-9.9,2.8c-3,1.9-5.2,4.6-6.5,8.2s-2,8.8-2,15.6v38.7L427.6,336.8L427.6,336.8z"/>
		<path class="st4" d="M595.9,327.6c-4.7,4-9.2,6.8-13.5,8.4s-9,2.5-13.9,2.5c-8.1,0-14.5-2-18.9-6s-6.6-9.1-6.6-15.3
			c0-3.6,0.9-7,2.5-10s3.8-5.5,6.5-7.3s5.7-3.2,9.1-4.1c2.5-0.7,6.2-1.2,11.2-1.9c10.1-1.2,17.7-2.7,22.5-4.3c0-1.7,0.1-2.9,0.1-3.3
			c0-5.2-1.1-8.8-3.5-10.9c-3.3-2.9-8-4.3-14.4-4.3c-5.9,0-10.3,1.1-13.1,3.2c-2.9,2.1-4.9,5.7-6.3,11l-12.4-1.7
			c1.1-5.3,3-9.6,5.6-12.8s6.3-5.7,11.1-7.5c4.9-1.7,10.5-2.6,16.9-2.6c6.3,0,11.5,0.8,15.5,2.2c3.9,1.5,6.9,3.4,8.8,5.6
			c1.9,2.3,3.2,5.2,3.9,8.6c0.4,2.1,0.7,6,0.7,11.7v16.9c0,11.8,0.3,19.1,0.8,22.3c0.6,3.1,1.6,6.1,3.2,8.9h-13.2
			C597.1,334.2,596.2,331.2,595.9,327.6z M594.8,299.5c-4.6,1.9-11.5,3.4-20.6,4.8c-5.2,0.8-8.9,1.6-11,2.5c-2.1,1-3.8,2.3-5,4.1
			s-1.7,3.8-1.7,6c0,3.4,1.2,6.1,3.8,8.4c2.6,2.2,6.3,3.4,11.2,3.4s9.2-1.1,12.9-3.2c3.8-2.1,6.6-5.1,8.3-8.7c1.3-2.9,2-7.1,2-12.6
			L594.8,299.5L594.8,299.5z"/>
		<path class="st4" d="M627.2,248.6V234h12.6v14.6H627.2z M627.2,336.8v-74.5h12.6v74.5H627.2z"/>
		<path class="st4" d="M658.8,336.8V234h12.6v102.8H658.8z"/>
		<path class="st4" d="M685.9,314.6l12.4-2c0.7,5,2.7,8.8,5.8,11.5c3.2,2.7,7.7,4,13.4,4c5.8,0,10.1-1.1,12.9-3.5
			c2.8-2.4,4.2-5.2,4.2-8.3c0-2.9-1.2-5.1-3.7-6.7c-1.7-1.1-6-2.6-12.9-4.3c-9.3-2.3-15.7-4.4-19.2-6c-3.5-1.7-6.3-4-8.1-7.1
			s-2.8-6.3-2.8-10c0-3.4,0.8-6.4,2.3-9.2c1.5-2.9,3.5-5.2,6.2-7.1c2-1.4,4.6-2.7,8-3.6c3.4-1,7-1.5,10.9-1.5c5.8,0,11,0.9,15.4,2.5
			s7.7,3.9,9.8,6.8s3.5,6.7,4.3,11.5l-12.4,1.7c-0.6-3.8-2.2-6.8-4.9-9c-2.7-2.1-6.5-3.3-11.4-3.3c-5.8,0-10,1-12.4,2.9
			c-2.5,1.9-3.7,4.1-3.7,6.7c0,1.6,0.5,3.1,1.5,4.4c1.1,1.3,2.7,2.5,4.9,3.4c1.2,0.5,5,1.5,11.1,3.3c8.9,2.4,15.1,4.3,18.7,5.8
			s6.3,3.7,8.3,6.6s3,6.5,3,10.8c0,4.2-1.2,8.1-3.6,11.9c-2.5,3.7-6,6.6-10.6,8.6s-9.9,3.1-15.7,3.1c-9.7,0-17-2-22.1-6
			C690.5,328.5,687.3,322.6,685.9,314.6z"/>
	</g>
</g>
</svg>
